<svg width="55" height="17" viewBox="0 0 55 17" fill="none" xmlns="http://www.w3.org/2000/svg">
<path d="M21.0489 13.995C19.8889 13.995 18.6089 13.35 17.2089 12.06C16.7789 12.63 16.2889 12.915 15.7389 12.915C14.9289 12.915 14.5239 12.395 14.5239 11.355C14.5239 11.075 14.5939 10.685 14.7339 10.185C14.9039 9.585 15.0989 9.285 15.3189 9.285C15.4889 9.285 15.7089 9.485 15.9789 9.885C16.1989 10.195 16.3989 10.475 16.5789 10.725C16.7589 10.965 16.9239 11.17 17.0739 11.34C17.1439 11.19 17.2339 11.005 17.3439 10.785C17.4539 10.555 17.5839 10.295 17.7339 10.005C16.8939 9.645 16.4739 9.125 16.4739 8.445C16.4739 8.175 16.5639 7.935 16.7439 7.725C16.9239 7.505 17.1439 7.395 17.4039 7.395C17.5239 7.395 17.6639 7.45 17.8239 7.56C17.9939 7.66 18.0789 7.77 18.0789 7.89C18.0789 7.94 18.0539 7.965 18.0039 7.965C17.9639 7.965 17.8739 7.93 17.7339 7.86C17.6139 7.81 17.5189 7.785 17.4489 7.785C17.1089 7.785 16.9389 8.02 16.9389 8.49C16.9389 9.02 17.2439 9.425 17.8539 9.705L18.4389 8.415C18.6989 7.855 18.9139 7.39 19.0839 7.02C19.2539 6.64 19.3939 6.36 19.5039 6.18C20.0939 5.22 20.6989 4.74 21.3189 4.74C21.7589 4.74 22.0989 4.905 22.3389 5.235C22.5489 5.515 22.6539 5.89 22.6539 6.36C22.6539 7.8 22.0539 8.905 20.8539 9.675C20.2039 10.085 19.5439 10.29 18.8739 10.29C18.7739 10.29 18.6739 10.285 18.5739 10.275C18.4739 10.255 18.3789 10.235 18.2889 10.215C18.1889 10.385 18.0689 10.595 17.9289 10.845C17.7889 11.095 17.6189 11.39 17.4189 11.73C17.6189 11.94 17.8439 12.14 18.0939 12.33C18.3439 12.53 18.6239 12.715 18.9339 12.885C19.6439 13.295 20.2339 13.5 20.7039 13.5C21.6739 13.5 22.1589 13.27 22.1589 12.81C22.1589 12.76 22.1439 12.685 22.1139 12.585C22.0739 12.495 22.0539 12.42 22.0539 12.36C22.0539 12.27 22.0889 12.225 22.1589 12.225C22.2289 12.225 22.3439 12.33 22.5039 12.54C22.5839 12.65 22.6239 12.775 22.6239 12.915C22.6239 13.275 22.4439 13.555 22.0839 13.755C21.8039 13.915 21.4589 13.995 21.0489 13.995ZM18.7989 9.945C19.1789 9.945 19.5639 9.85 19.9539 9.66C20.3439 9.47 20.6989 9.22 21.0189 8.91C21.3389 8.6 21.5789 8.275 21.7389 7.935C22.0189 7.335 22.1589 6.745 22.1589 6.165C22.1589 5.445 21.9089 5.085 21.4089 5.085C21.0089 5.085 20.5439 5.56 20.0139 6.51C19.9139 6.69 19.7939 6.95 19.6539 7.29C19.5139 7.62 19.3339 8.02 19.1139 8.49L18.4539 9.9C18.5639 9.93 18.6789 9.945 18.7989 9.945ZM15.7239 12.48C15.9239 12.48 16.1339 12.405 16.3539 12.255C16.5839 12.105 16.7589 11.935 16.8789 11.745C16.6889 11.555 16.4939 11.35 16.2939 11.13C16.1039 10.9 15.9089 10.66 15.7089 10.41L15.3789 9.99C15.3089 9.92 15.2589 9.885 15.2289 9.885C15.0989 9.885 15.0339 10.21 15.0339 10.86C15.0339 11.94 15.2639 12.48 15.7239 12.48ZM24.485 7.035C24.395 7.035 24.29 6.99 24.17 6.9C24.06 6.8 24.005 6.705 24.005 6.615C24.005 6.525 24.055 6.44 24.155 6.36C24.265 6.27 24.39 6.195 24.53 6.135C24.67 6.075 24.79 6.045 24.89 6.045C24.95 6.045 24.98 6.075 24.98 6.135C24.98 6.175 24.925 6.25 24.815 6.36C24.695 6.48 24.63 6.55 24.62 6.57L24.605 6.84C24.605 6.97 24.565 7.035 24.485 7.035ZM22.505 12.09C22.135 12.09 21.95 11.89 21.95 11.49C21.95 10.95 22.32 9.91 23.06 8.37C23.34 7.76 23.665 7.455 24.035 7.455C24.135 7.455 24.185 7.48 24.185 7.53C22.975 9.73 22.37 11.075 22.37 11.565C22.37 11.725 22.435 11.805 22.565 11.805C22.625 11.805 22.71 11.77 22.82 11.7C22.93 11.62 23.045 11.535 23.165 11.445C23.285 11.345 23.385 11.26 23.465 11.19C23.545 11.11 23.585 11.07 23.585 11.07C23.605 11.07 23.625 11.125 23.645 11.235C23.645 11.355 23.575 11.485 23.435 11.625C23.295 11.755 23.135 11.865 22.955 11.955C22.785 12.045 22.635 12.09 22.505 12.09ZM22.5764 16.77C22.2464 16.77 22.0814 16.53 22.0814 16.05C22.0814 15.29 22.4714 14.475 23.2514 13.605C23.9714 12.815 24.7164 12.275 25.4864 11.985L26.1464 10.365C25.4164 11.515 24.7914 12.09 24.2714 12.09C23.9814 12.09 23.8364 11.88 23.8364 11.46C23.8364 10.81 24.1314 9.995 24.7214 9.015C25.3714 7.965 25.9914 7.44 26.5814 7.44C26.9114 7.44 27.0764 7.59 27.0764 7.89C27.0764 8.17 27.0214 8.31 26.9114 8.31H26.8814C26.8414 8.25 26.7664 8.22 26.6564 8.22C26.3564 8.22 26.0164 8.415 25.6364 8.805C25.3264 9.115 25.0764 9.445 24.8864 9.795C24.4164 10.625 24.1814 11.21 24.1814 11.55C24.1814 11.68 24.2264 11.745 24.3164 11.745C24.5964 11.745 25.0864 11.295 25.7864 10.395C26.4564 9.525 26.8414 8.905 26.9414 8.535V8.52C27.1114 8.41 27.2564 8.355 27.3764 8.355C27.4664 8.355 27.5114 8.4 27.5114 8.49C27.5114 8.52 27.5014 8.56 27.4814 8.61C27.4614 8.66 27.4364 8.725 27.4064 8.805L25.9664 11.88C26.0064 11.87 26.0414 11.865 26.0714 11.865C26.1114 11.855 26.1514 11.85 26.1914 11.85C26.4814 11.85 26.6264 12.02 26.6264 12.36C26.6264 12.54 26.5914 12.63 26.5214 12.63C26.4114 12.63 26.3664 12.575 26.3864 12.465V12.435C26.3864 12.225 26.2864 12.12 26.0864 12.12C25.9864 12.12 25.8964 12.14 25.8164 12.18C25.7864 12.3 25.7164 12.485 25.6064 12.735C25.4964 12.995 25.3664 13.275 25.2164 13.575C25.0764 13.875 24.9364 14.155 24.7964 14.415C24.6664 14.675 24.5614 14.87 24.4814 15C23.7514 16.18 23.1164 16.77 22.5764 16.77ZM22.4864 16.455C22.6964 16.455 23.0864 16.095 23.6564 15.375C24.2764 14.595 24.8464 13.575 25.3664 12.315C24.5764 12.705 23.9614 13.18 23.5214 13.74C23.2914 14.04 23.0464 14.435 22.7864 14.925C22.4964 15.485 22.3514 15.925 22.3514 16.245C22.3514 16.385 22.3964 16.455 22.4864 16.455ZM27.0528 12.165C26.9828 12.165 26.9478 12.125 26.9478 12.045C26.9478 11.835 27.5628 10.35 28.7928 7.59C28.9228 7.27 29.0828 6.88 29.2728 6.42C29.4628 5.95 29.6878 5.41 29.9478 4.8C30.5578 3.47 31.1728 2.805 31.7928 2.805C32.1928 2.805 32.3928 3.06 32.3928 3.57C32.3928 3.8 32.3428 3.95 32.2428 4.02H32.2128C32.1728 4.02 32.1278 3.92 32.0778 3.72C32.0278 3.52 31.9528 3.42 31.8528 3.42C31.2828 3.42 30.1028 5.59 28.3128 9.93C28.4728 9.68 28.6178 9.46 28.7478 9.27C28.8878 9.08 29.0128 8.92 29.1228 8.79C29.2828 8.59 29.4428 8.415 29.6028 8.265C29.7728 8.105 29.9428 7.97 30.1128 7.86C30.7028 7.47 31.1578 7.275 31.4778 7.275C31.6478 7.275 31.7328 7.335 31.7328 7.455C31.7328 7.525 31.6728 7.645 31.5528 7.815C31.1528 8.385 30.7378 9.16 30.3078 10.14C29.9678 10.89 29.7978 11.395 29.7978 11.655C29.7978 11.715 29.8078 11.745 29.8278 11.745C29.9078 11.745 30.1028 11.635 30.4128 11.415C30.7328 11.205 30.9028 11.1 30.9228 11.1C30.9528 11.1 30.9678 11.12 30.9678 11.16C30.9678 11.27 30.8928 11.4 30.7428 11.55C30.6028 11.69 30.4378 11.81 30.2478 11.91C30.0578 12.01 29.9028 12.06 29.7828 12.06C29.4328 12.06 29.2578 11.885 29.2578 11.535C29.2578 11.245 29.4428 10.715 29.8128 9.945C29.9028 9.765 30.0128 9.54 30.1428 9.27C30.2728 9 30.4228 8.685 30.5928 8.325C30.7028 8.075 30.7578 7.92 30.7578 7.86C30.7578 7.83 30.7428 7.815 30.7128 7.815C30.6628 7.815 30.5678 7.87 30.4278 7.98C30.1078 8.24 29.7678 8.575 29.4078 8.985C29.0478 9.395 28.7128 9.83 28.4028 10.29C28.0928 10.75 27.8428 11.18 27.6528 11.58C27.4728 11.97 27.2728 12.165 27.0528 12.165ZM32.0014 12.09C31.6614 12.09 31.4914 11.89 31.4914 11.49C31.4914 11.28 31.5314 11.015 31.6114 10.695C31.7014 10.365 31.8364 9.985 32.0164 9.555L32.8264 7.605C32.7864 7.605 32.7414 7.605 32.6914 7.605C32.6414 7.595 32.5764 7.59 32.4964 7.59L32.1664 7.575C32.0564 7.575 32.0014 7.51 32.0014 7.38C32.0014 7.32 32.0864 7.28 32.2564 7.26L32.5864 7.23C32.6864 7.22 32.7714 7.21 32.8414 7.2C32.9214 7.19 32.9864 7.185 33.0364 7.185C33.1464 6.915 33.2914 6.58 33.4714 6.18C33.6614 5.78 33.8864 5.32 34.1464 4.8C34.5064 4.22 34.8464 3.93 35.1664 3.93C35.2464 3.93 35.2864 3.965 35.2864 4.035C35.2864 4.105 35.0414 4.58 34.5514 5.46C34.2914 5.94 34.0814 6.325 33.9214 6.615C33.7714 6.905 33.6764 7.105 33.6364 7.215C34.3864 7.215 34.7614 7.27 34.7614 7.38C34.7614 7.53 34.3164 7.605 33.4264 7.605C32.4164 10.005 31.9114 11.33 31.9114 11.58C31.9114 11.74 31.9714 11.82 32.0914 11.82C32.1914 11.82 32.3714 11.705 32.6314 11.475C32.8614 11.255 33.0014 11.145 33.0514 11.145C33.1114 11.145 33.1414 11.19 33.1414 11.28C33.1414 11.38 33.0714 11.495 32.9314 11.625C32.7914 11.755 32.6314 11.865 32.4514 11.955C32.2714 12.045 32.1214 12.09 32.0014 12.09ZM38.4052 13.11C38.1052 13.11 37.6752 12.935 37.1152 12.585C36.5352 12.495 36.0652 12.35 35.7052 12.15C35.4452 11.99 35.2052 11.78 34.9852 11.52C34.7652 11.26 34.5852 10.99 34.4452 10.71C34.3152 10.43 34.2502 10.18 34.2502 9.96C34.2502 9.4 34.4752 9.12 34.9252 9.12C35.2352 9.12 35.4952 9.37 35.7052 9.87L36.2452 11.13C36.4852 11.58 36.7802 11.935 37.1302 12.195C37.4402 12.265 37.7902 12.3 38.1802 12.3C38.9602 12.3 39.6702 12.165 40.3102 11.895C41.1102 11.565 41.6152 11.085 41.8252 10.455C41.8852 10.275 41.9152 10.11 41.9152 9.96C41.9152 9.58 41.6652 9.29 41.1652 9.09C41.0352 9.04 40.8652 8.99 40.6552 8.94C40.4552 8.89 40.2152 8.845 39.9352 8.805C39.2752 8.695 38.8602 8.62 38.6902 8.58C37.5002 8.29 36.9052 7.78 36.9052 7.05C36.9052 6.68 37.0902 6.31 37.4602 5.94C38.2002 5.2 39.2302 4.83 40.5502 4.83C41.7802 4.83 42.5902 5.185 42.9802 5.895C43.0702 6.055 43.1152 6.23 43.1152 6.42C43.1152 6.72 42.9852 6.96 42.7252 7.14C42.4752 7.31 42.1902 7.395 41.8702 7.395C41.6402 7.395 41.5252 7.34 41.5252 7.23C41.5252 7.14 41.6202 7.08 41.8102 7.05C42.0702 7 42.2452 6.955 42.3352 6.915C42.5252 6.815 42.6202 6.635 42.6202 6.375C42.6202 5.955 42.3752 5.65 41.8852 5.46C41.5252 5.32 41.1052 5.25 40.6252 5.25C40.1052 5.25 39.6052 5.325 39.1252 5.475C38.5352 5.655 38.1052 5.91 37.8352 6.24C37.6152 6.49 37.5052 6.735 37.5052 6.975C37.5052 7.475 38.0102 7.83 39.0202 8.04C39.1802 8.06 39.3752 8.095 39.6052 8.145C39.8352 8.185 40.1052 8.235 40.4152 8.295C41.8752 8.585 42.6052 9.11 42.6052 9.87C42.6052 10.08 42.5602 10.3 42.4702 10.53C42.1502 11.3 41.5252 11.87 40.5952 12.24C39.8252 12.55 38.9602 12.69 38.0002 12.66C38.0802 12.68 38.1652 12.705 38.2552 12.735C38.3452 12.765 38.4452 12.79 38.5552 12.81V12.825L38.5702 12.81C38.6302 12.84 38.6602 12.885 38.6602 12.945C38.6602 13.055 38.5752 13.11 38.4052 13.11ZM36.3502 11.97C36.1402 11.77 35.9302 11.51 35.7202 11.19C35.5102 10.87 35.2952 10.495 35.0752 10.065C34.9352 9.775 34.8202 9.63 34.7302 9.63C34.7202 9.63 34.7152 9.635 34.7152 9.645C34.7152 9.955 34.7902 10.265 34.9402 10.575C35.0902 10.885 35.2902 11.165 35.5402 11.415C35.7902 11.655 36.0602 11.84 36.3502 11.97ZM42.668 12.165C42.598 12.165 42.563 12.125 42.563 12.045C42.563 11.835 43.178 10.35 44.408 7.59C44.538 7.27 44.698 6.88 44.888 6.42C45.078 5.95 45.303 5.41 45.563 4.8C46.173 3.47 46.788 2.805 47.408 2.805C47.808 2.805 48.008 3.06 48.008 3.57C48.008 3.8 47.958 3.95 47.858 4.02H47.828C47.788 4.02 47.743 3.92 47.693 3.72C47.643 3.52 47.568 3.42 47.468 3.42C46.898 3.42 45.718 5.59 43.928 9.93C44.088 9.68 44.233 9.46 44.363 9.27C44.503 9.08 44.628 8.92 44.738 8.79C44.898 8.59 45.058 8.415 45.218 8.265C45.388 8.105 45.558 7.97 45.728 7.86C46.318 7.47 46.773 7.275 47.093 7.275C47.263 7.275 47.348 7.335 47.348 7.455C47.348 7.525 47.288 7.645 47.168 7.815C46.768 8.385 46.353 9.16 45.923 10.14C45.583 10.89 45.413 11.395 45.413 11.655C45.413 11.715 45.423 11.745 45.443 11.745C45.523 11.745 45.718 11.635 46.028 11.415C46.348 11.205 46.518 11.1 46.538 11.1C46.568 11.1 46.583 11.12 46.583 11.16C46.583 11.27 46.508 11.4 46.358 11.55C46.218 11.69 46.053 11.81 45.863 11.91C45.673 12.01 45.518 12.06 45.398 12.06C45.048 12.06 44.873 11.885 44.873 11.535C44.873 11.245 45.058 10.715 45.428 9.945C45.518 9.765 45.628 9.54 45.758 9.27C45.888 9 46.038 8.685 46.208 8.325C46.318 8.075 46.373 7.92 46.373 7.86C46.373 7.83 46.358 7.815 46.328 7.815C46.278 7.815 46.183 7.87 46.043 7.98C45.723 8.24 45.383 8.575 45.023 8.985C44.663 9.395 44.328 9.83 44.018 10.29C43.708 10.75 43.458 11.18 43.268 11.58C43.088 11.97 42.888 12.165 42.668 12.165ZM47.5116 12.24C47.0616 12.24 46.8366 11.98 46.8366 11.46C46.8366 10.71 47.1166 9.785 47.6766 8.685C48.1466 7.765 48.5716 7.305 48.9516 7.305C49.0316 7.305 49.1216 7.335 49.2216 7.395L49.3866 7.485L49.4166 7.425C49.4266 7.345 49.4716 7.235 49.5516 7.095C49.6116 7.075 49.6566 7.065 49.6866 7.065C49.9366 7.065 50.0616 7.3 50.0616 7.77C50.0616 7.82 50.0616 7.885 50.0616 7.965C50.0616 8.035 50.0566 8.12 50.0466 8.22C50.0366 8.32 50.0266 8.41 50.0166 8.49C50.0166 8.56 50.0166 8.62 50.0166 8.67C50.0166 8.81 50.1216 8.88 50.3316 8.88C50.3716 8.88 50.4366 8.865 50.5266 8.835C50.6166 8.805 50.6866 8.79 50.7366 8.79C50.8266 8.79 50.8716 8.82 50.8716 8.88C50.8716 9.04 50.6966 9.12 50.3466 9.12C50.1366 9.12 49.9916 9.085 49.9116 9.015C49.7316 9.685 49.4516 10.34 49.0716 10.98C48.5616 11.82 48.0416 12.24 47.5116 12.24ZM47.6016 11.88C48.1116 11.88 48.6516 11.3 49.2216 10.14C49.4816 9.6 49.6216 9.19 49.6416 8.91C49.4616 8.81 49.3516 8.595 49.3116 8.265C49.2616 7.975 49.2016 7.83 49.1316 7.83C48.8616 7.83 48.5366 8.205 48.1566 8.955C47.6066 10.015 47.3316 10.855 47.3316 11.475C47.3316 11.745 47.4216 11.88 47.6016 11.88ZM48.4329 16.605C48.3429 16.605 48.2979 16.525 48.2979 16.365C48.2979 16.285 48.5079 15.745 48.9279 14.745L49.6479 13.02C49.7179 12.85 49.8179 12.59 49.9479 12.24C50.0679 11.9 50.2229 11.475 50.4129 10.965L51.3579 8.355C51.3779 8.305 51.4029 8.23 51.4329 8.13C51.4629 8.03 51.4979 7.915 51.5379 7.785C51.6679 7.415 51.8579 7.23 52.1079 7.23C52.1779 7.23 52.2129 7.27 52.2129 7.35C52.2129 7.43 52.0829 7.83 51.8229 8.55L51.3279 9.855C51.5679 9.355 51.8629 8.855 52.2129 8.355C52.7129 7.635 53.1079 7.275 53.3979 7.275C53.7879 7.275 53.9829 7.615 53.9829 8.295C53.9829 8.855 53.8579 9.44 53.6079 10.05C53.3579 10.65 53.0379 11.165 52.6479 11.595C52.1679 12.115 51.7029 12.375 51.2529 12.375C50.8429 12.375 50.6379 12.235 50.6379 11.955C50.6379 11.865 50.6529 11.81 50.6829 11.79C50.6829 11.78 50.6979 11.775 50.7279 11.775C50.7279 11.775 50.7229 11.775 50.7129 11.775C50.7129 11.775 50.7029 11.78 50.6829 11.79C50.6829 11.8 50.7629 11.835 50.9229 11.895C51.0329 11.935 51.1229 11.965 51.1929 11.985C51.2629 12.005 51.3179 12.015 51.3579 12.015C51.9079 12.015 52.4079 11.56 52.8579 10.65C53.2479 9.87 53.4429 9.17 53.4429 8.55C53.4429 8.13 53.3479 7.92 53.1579 7.92C53.1479 7.93 53.1329 7.935 53.1129 7.935H53.1279C52.8479 7.975 52.3679 8.575 51.6879 9.735C51.4079 10.225 51.1729 10.655 50.9829 11.025C50.7929 11.395 50.6479 11.7 50.5479 11.94C50.4479 12.23 50.3129 12.595 50.1429 13.035C49.9829 13.475 49.7929 13.99 49.5729 14.58C49.0629 15.93 48.6829 16.605 48.4329 16.605Z" fill="#693F23"/>
<g clip-path="url(#clip0_403_15)">
<path d="M12.7207 5.02656C12.7207 4.87422 12.6547 4.73965 12.5531 4.64316L10.692 2.46211C10.593 2.34785 10.4508 2.2793 10.2984 2.2793H2.69648C2.54414 2.2793 2.40195 2.34531 2.30293 2.46211L0.403711 4.69141C0.322461 4.78789 0.279297 4.90723 0.279297 5.02656C0.279297 5.02656 0.279297 5.02656 0.279297 5.0291V14.2002C0.279297 14.4871 0.510352 14.7182 0.797266 14.7182H12.1977C12.4846 14.7182 12.7156 14.4871 12.7156 14.2002C12.7156 14.2002 12.7207 5.04941 12.7207 5.02656V5.02656ZM11.6797 5.96602C11.6797 6.43066 11.3014 6.80898 10.8367 6.80898H10.7072C10.2426 6.80898 9.86426 6.43066 9.86426 5.96602V5.54453H11.6797V5.96602ZM8.82832 5.96602C8.82832 6.43066 8.45 6.80898 7.98535 6.80898H7.85586C7.39121 6.80898 7.01289 6.43066 7.01289 5.96602V5.54453H8.82578V5.96602H8.82832ZM5.98203 5.96602C5.98203 6.43066 5.60371 6.80898 5.13906 6.80898H5.00957C4.54492 6.80898 4.1666 6.43066 4.1666 5.96602V5.54453H5.97949V5.96602H5.98203ZM3.1332 5.96602C3.1332 6.43066 2.75488 6.80898 2.29023 6.80898H2.16328C1.69863 6.80898 1.32031 6.43066 1.32031 5.96602V5.54453H3.1332V5.96602ZM2.94277 3.31777H10.0648L11.0805 4.50859H1.92715L2.94277 3.31777V3.31777ZM5.75859 13.6822V10.9984H7.24902V13.6822H5.75859ZM8.28496 13.6822V10.4805C8.28496 10.1936 8.05391 9.9625 7.76699 9.9625H5.24062C4.95371 9.9625 4.72266 10.1936 4.72266 10.4805V13.6822H1.32031V7.64434C1.57422 7.77129 1.85859 7.84492 2.16328 7.84492H2.29277C2.82852 7.84492 3.31094 7.61895 3.65371 7.26094C3.99648 7.62148 4.47891 7.84492 5.01465 7.84492H5.14414C5.67988 7.84492 6.1623 7.61895 6.50508 7.26094C6.84785 7.62148 7.33027 7.84492 7.86602 7.84492H7.99551C8.53125 7.84492 9.01367 7.61895 9.35645 7.26094C9.69922 7.62148 10.1816 7.84492 10.7174 7.84492H10.8469C11.149 7.84492 11.4359 7.77129 11.6898 7.64434V13.6822H8.28496V13.6822Z" fill="#693F23"/>
</g>
<defs>
<clipPath id="clip0_403_15">
<rect width="13" height="13" fill="white" transform="translate(0 2)"/>
</clipPath>
</defs>
</svg>
